<svg width="32" height="32" viewBox="0 0 32 32" fill="none" xmlns="http://www.w3.org/2000/svg">
<path d="M28 21.3357V10.6632C27.9996 10.3139 27.9077 9.97076 27.7334 9.66801C27.5592 9.36526 27.3087 9.11342 27.0069 8.93756L17.5069 3.40881C17.0492 3.14234 16.529 3.00195 15.9994 3.00195C15.4697 3.00195 14.9496 3.14234 14.4919 3.40881L4.99312 8.93756C4.69131 9.11342 4.44081 9.36526 4.26657 9.66801C4.09233 9.97076 4.00043 10.3139 4 10.6632V21.3357C4.00021 21.6852 4.09201 22.0286 4.26626 22.3316C4.44051 22.6346 4.69112 22.8866 4.99312 23.0626L14.4931 28.5913C14.951 28.8574 15.4711 28.9976 16.0006 28.9976C16.5302 28.9976 17.0503 28.8574 17.5081 28.5913L27.0081 23.0626C27.3099 22.8864 27.5603 22.6343 27.7343 22.3314C27.9083 22.0284 27.9999 21.6851 28 21.3357Z" stroke="#FF3300" stroke-width="2" stroke-linecap="round" stroke-linejoin="round"/>
<path d="M4.3125 9.62451L16 16.4995L27.6875 9.62451" stroke="#FF3300" stroke-width="2" stroke-linecap="round" stroke-linejoin="round"/>
<path d="M16 28.9995V16.4995" stroke="#FF3300" stroke-width="2" stroke-linecap="round" stroke-linejoin="round"/>
<path d="M16 10.5C16.8284 10.5 17.5 10.0523 17.5 9.5C17.5 8.94772 16.8284 8.5 16 8.5C15.1716 8.5 14.5 8.94772 14.5 9.5C14.5 10.0523 15.1716 10.5 16 10.5Z" fill="#FF3300"/>
<path d="M13 20C13.5523 20 14 19.3284 14 18.5C14 17.6716 13.5523 17 13 17C12.4477 17 12 17.6716 12 18.5C12 19.3284 12.4477 20 13 20Z" fill="#FF3300"/>
<path d="M7 22C7.55228 22 8 21.3284 8 20.5C8 19.6716 7.55228 19 7 19C6.44772 19 6 19.6716 6 20.5C6 21.3284 6.44772 22 7 22Z" fill="#FF3300"/>
<path d="M19 20C19.5523 20 20 19.3284 20 18.5C20 17.6716 19.5523 17 19 17C18.4477 17 18 17.6716 18 18.5C18 19.3284 18.4477 20 19 20Z" fill="#FF3300"/>
<path d="M25 16.5C25.5523 16.5 26 15.8284 26 15C26 14.1716 25.5523 13.5 25 13.5C24.4477 13.5 24 14.1716 24 15C24 15.8284 24.4477 16.5 25 16.5Z" fill="#FF3300"/>
<path d="M19 25.5C19.5523 25.5 20 24.8284 20 24C20 23.1716 19.5523 22.5 19 22.5C18.4477 22.5 18 23.1716 18 24C18 24.8284 18.4477 25.5 19 25.5Z" fill="#FF3300"/>
<path d="M25 22C25.5523 22 26 21.3284 26 20.5C26 19.6716 25.5523 19 25 19C24.4477 19 24 19.6716 24 20.5C24 21.3284 24.4477 22 25 22Z" fill="#FF3300"/>
</svg>
