<svg xmlns="http://www.w3.org/2000/svg" width="64" height="64" viewBox="0 0 64 64" fill="none"><style>
@keyframes a0_t { 0% { transform: translate(14px,61px); } 40% { transform: translate(14px,61px); } 95% { transform: translate(14px,4px); } 100% { transform: translate(14px,4px); } }
@keyframes a0_o { 0% { opacity: 0; } 40% { opacity: 0; } 70% { opacity: 1; } 95% { opacity: 0; } 100% { opacity: 0; } }
@keyframes a1_t { 0% { transform: translate(9px,61px); } 15% { transform: translate(9px,61px); } 70% { transform: translate(9px,4px); } 100% { transform: translate(9px,4px); } }
@keyframes a1_o { 0% { opacity: 0; } 15% { opacity: 0; } 40% { opacity: 1; } 70% { opacity: 0; } 100% { opacity: 0; } }
@keyframes a2_t { 0% { transform: translate(23px,61px); } 30% { transform: translate(23px,61px); } 80% { transform: translate(23px,4px); } 100% { transform: translate(23px,4px); } }
@keyframes a2_o { 0% { opacity: 0; } 30% { opacity: 0; } 65% { opacity: 1; } 80% { opacity: 0; } 100% { opacity: 0; } }
@keyframes a3_t { 0% { transform: translate(43px,61px); } 10% { transform: translate(43px,61px); } 70% { transform: translate(43px,4px); } 100% { transform: translate(43px,4px); } }
@keyframes a3_o { 0% { opacity: 0; } 10% { opacity: 0; } 40% { opacity: 1; } 70% { opacity: 0; } 100% { opacity: 0; } }
@keyframes a4_t { 0% { transform: translate(55px,61px); } 5% { transform: translate(55px,61px); } 85% { transform: translate(55px,4px); } 100% { transform: translate(55px,4px); } }
@keyframes a4_o { 0% { opacity: 0; } 5% { opacity: 0; } 60% { opacity: 1; } 85% { opacity: 0; } 100% { opacity: 0; } }
@keyframes a5_t { 0% { transform: translate(25px,61px); } 75% { transform: translate(25px,4px); } 100% { transform: translate(25px,4px); } }
@keyframes a5_o { 0% { opacity: 0; } 50% { opacity: 1; } 75% { opacity: 0; } 100% { opacity: 0; } }
@keyframes a6_t { 0% { transform: translate(30px,61px); } 20% { transform: translate(30px,61px); } 90% { transform: translate(30px,4px); } 100% { transform: translate(30px,4px); } }
@keyframes a6_o { 0% { opacity: 0; } 20% { opacity: 0; } 40% { opacity: 1; } 90% { opacity: 0; } 100% { opacity: 0; } }
@keyframes a7_t { 0% { transform: translate(20px,61px); } 45% { transform: translate(20px,61px); } 85% { transform: translate(20px,4px); } 100% { transform: translate(20px,4px); } }
@keyframes a7_o { 0% { opacity: 0; } 45% { opacity: 0; } 50% { opacity: 1; } 85% { opacity: 0; } 100% { opacity: 0; } }
@keyframes a8_t { 0% { transform: translate(39px,61px); } 5% { transform: translate(39px,61px); } 90% { transform: translate(39px,4px); } 100% { transform: translate(39px,4px); } }
@keyframes a8_o { 0% { opacity: 0; } 5% { opacity: 0; } 65% { opacity: 1; } 90% { opacity: 0; } 100% { opacity: 0; } }
@keyframes a9_t { 0% { transform: translate(18px,61px); } 15% { transform: translate(18px,61px); } 85% { transform: translate(18px,4px); } 100% { transform: translate(18px,4px); } }
@keyframes a9_o { 0% { opacity: 0; } 15% { opacity: 0; } 45% { opacity: 1; } 85% { opacity: 0; } 100% { opacity: 0; } }
@keyframes a10_t { 0% { transform: translate(21px,61px); } 30% { transform: translate(21px,61px); } 95% { transform: translate(21px,4px); } 100% { transform: translate(21px,4px); } }
@keyframes a10_o { 0% { opacity: 0; } 30% { opacity: 0; } 70% { opacity: 1; } 95% { opacity: 0; } 100% { opacity: 0; } }
@keyframes a11_t { 0% { transform: translate(32px,61px); } 20% { transform: translate(32px,61px); } 80% { transform: translate(32px,4px); } 100% { transform: translate(32px,4px); } }
@keyframes a11_o { 0% { opacity: 0; } 20% { opacity: 0; } 40% { opacity: 1; } 80% { opacity: 0; } 100% { opacity: 0; } }
@keyframes a12_t { 0% { transform: translate(50px,61px); } 35% { transform: translate(50px,61px); } 90% { transform: translate(50px,4px); } 100% { transform: translate(50px,4px); } }
@keyframes a12_o { 0% { opacity: 0; } 35% { opacity: 0; } 70% { opacity: 1; } 90% { opacity: 0; } 100% { opacity: 0; } }
@keyframes a13_t { 0% { transform: translate(27.5px,61.5px); } 5% { transform: translate(27.5px,61.5px); } 80% { transform: translate(27.5px,4.5px); } 100% { transform: translate(27.5px,4.5px); } }
@keyframes a13_o { 0% { opacity: 0; } 5% { opacity: 0; } 40% { opacity: 1; } 80% { opacity: 0; } 100% { opacity: 0; } }
@keyframes a14_t { 0% { transform: translate(51.5px,61.5px); } 15% { transform: translate(51.5px,61.5px); } 90% { transform: translate(51.5px,4.5px); } 100% { transform: translate(51.5px,4.5px); } }
@keyframes a14_o { 0% { opacity: 0; } 15% { opacity: 0; } 65% { opacity: 1; } 90% { opacity: 0; } 100% { opacity: 0; } }
@keyframes a15_t { 0% { transform: translate(48.5px,61.5px); } 35% { transform: translate(48.5px,61.5px); } 75% { transform: translate(48.5px,4.5px); } 100% { transform: translate(48.5px,4.5px); } }
@keyframes a15_o { 0% { opacity: 0; } 35% { opacity: 0; } 60% { opacity: 1; } 75% { opacity: 0; } 100% { opacity: 0; } }
@keyframes a16_t { 0% { transform: translate(36.5px,61.5px); } 5% { transform: translate(36.5px,61.5px); } 90% { transform: translate(36.5px,4.5px); } 100% { transform: translate(36.5px,4.5px); } }
@keyframes a16_o { 0% { opacity: 0; } 5% { opacity: 0; } 40% { opacity: 1; } 90% { opacity: 0; } 100% { opacity: 0; } }
@keyframes a17_t { 0% { transform: translate(16.5px,61.5px); } 85% { transform: translate(16.5px,4.5px); } 100% { transform: translate(16.5px,4.5px); } }
@keyframes a17_o { 0% { opacity: 0; } 65% { opacity: 1; } 85% { opacity: 0; } 100% { opacity: 0; } }
@keyframes a18_t { 0% { transform: translate(10.5px,61.5px); } 15% { transform: translate(10.5px,61.5px); } 95% { transform: translate(10.5px,4.5px); } 100% { transform: translate(10.5px,4.5px); } }
@keyframes a18_o { 0% { opacity: 0; } 15% { opacity: 0; } 40% { opacity: 1; } 95% { opacity: 0; } 100% { opacity: 0; } }
@keyframes a19_t { 0% { transform: translate(46.5px,61.5px); } 85% { transform: translate(46.5px,4.5px); } 100% { transform: translate(46.5px,4.5px); } }
@keyframes a19_o { 0% { opacity: 0; } 65% { opacity: 1; } 85% { opacity: 0; } 100% { opacity: 0; } }
@keyframes a20_t { 0% { transform: translate(40.5px,61.5px); } 45% { transform: translate(40.5px,61.5px); } 100% { transform: translate(40.5px,4.5px); } }
@keyframes a20_o { 0% { opacity: 0; } 45% { opacity: 0; } 90% { opacity: 1; } 100% { opacity: 0; } }
@keyframes a21_t { 0% { transform: translate(33.5px,61.5px); } 35% { transform: translate(33.5px,61.5px); } 95% { transform: translate(33.5px,4.5px); } 100% { transform: translate(33.5px,4.5px); } }
@keyframes a21_o { 0% { opacity: 0; } 35% { opacity: 0; } 60% { opacity: 1; } 95% { opacity: 0; } 100% { opacity: 0; } }
@keyframes a22_t { 0% { transform: translate(54.5px,61.5px); } 25% { transform: translate(54.5px,61.5px); } 90% { transform: translate(54.5px,4.5px); } 100% { transform: translate(54.5px,4.5px); } }
@keyframes a22_o { 0% { opacity: 0; } 25% { opacity: 0; } 40% { opacity: 1; } 90% { opacity: 0; } 100% { opacity: 0; } }
</style><rect width="64" height="64" rx="115" fill="#f30"/><path fill-rule="evenodd" clip-rule="evenodd" d="M8 0c-4.4 0-8 3.6-8 8v48c0 4.4 3.6 8 8 8h48c4.4 0 8-3.6 8-8v-48c0-4.4-3.6-8-8-8h-48Zm1.4 37.2c-0.2-0.2-0.4-0.5-0.6-0.7c0-0.1 0-0.1-0.1-0.2c.1 .2 .2 .4 .2 .6c-0.8-1.3-0.8-2.3-0.7-2.9c.3-1.1 1.1-2 2.2-2.3c.8 .8 2.5 1.9 3.4 2.4c.5 .2 1 .4 1.5 .6c.4 .1 .7 .2 1.1 .3c.3 .1 .6 .1 1 .2c.1 0 .3 0 .4 0h.1c.1 0 .3 0 .5 0v.1c-1.8 1.1-3.3 1.7-4.6 2c-1.4 .4-3.1 .8-4.4-0.1Zm20-8.1c-1.2-0.2-2.3-0.7-3.3-1.5c-0.4-1.1 .5-1.9 1.8-1.8c1 .5 1.9 1.1 2.6 1.9c-0.3 .5-0.5 1-0.5 1.5c.1 .3 .2 .6 .3 .9c-0.4-0.2-0.7-0.6-0.9-1Zm15.1 9.4c2.6 .9 4.8 1.4 6.4 1.5c-1.7 .1-3.8-0.4-6.4-1.5Zm-17.5 5.9c.7-0.7 1.4-1.5 2-2.6c-0.5 1.4-1.2 2.3-2 2.6Zm-14.6-4.3c3.3-0.5 6.4-1.5 9.4-2.9c-2.8 1.7-6 2.7-9.4 2.9Zm10.7-21.6c.4 2 1.3 4 2.4 5.7c-1.4-1.6-2.3-3.6-2.4-5.7Zm10.7-8c1.3 1.2 2.3 2.9 2.8 4.7c-0.2-1.9-1.2-3.7-2.8-4.7Zm-26 22c-0.4 .4-0.7 .9-1 1.5c-0.2 .5-0.3 1-0.3 1.6c-0.1 .6 0 1.1 .2 1.8c0 0 .1 .1 .1 .1c0 .1 0 .2 .1 .3c.1 .1 .1 .2 .2 .3c.5 .7 1.1 1.3 1.9 1.7c.8 .4 1.7 .6 2.8 .7c1 .1 2.2 .1 3.4-0.2c1.2-0.2 2.5-0.6 3.7-1.1c.6-0.3 1.1-0.6 1.7-0.9c.5-0.3 1.1-0.6 1.6-1h.1l.1-0.2l-0.1 .2c-0.5 1-1.3 2-2.2 2.9c-0.4 .4-0.8 .8-1.3 1.2c-0.5 .4-1 .7-1.5 1c-0.5 .3-0.9 .6-1.3 .8c-0.4 .3-0.7 .6-1.1 .8c-0.9 .8-1.6 1.5-2.2 2.2c-0.6 .8-1 1.6-1.2 2.3c-0.2 .7-0.3 1.3-0.2 1.9c.1 .6 .3 1.2 .6 1.8h.1c0 .1 .1 .2 .1 .2c.1 .1 .1 .2 .2 .2v.1c.6 .7 1.4 1.2 2.3 1.6c.9 .3 2 .5 2.9 .4c.4 0 .8-0.1 1.1-0.2c.3 0 .7-0.2 .9-0.3c.3-0.1 .6-0.3 .8-0.5c.2-0.2 .4-0.4 .6-0.7c.1-0.3 .2-0.6 .3-0.9c0-0.4 0-0.7-0.1-1.1l-0.2-1l-0.4 1l-0.1 .2c-0.1 .1-0.1 .2-0.2 .2c-0.1 .3-0.3 .5-0.5 .7c-1.4 1.2-3.9 1.1-4.6-0.8c-0.8-2.2 .8-4.1 3.5-5c.1-0.1 .2-0.2 .3-0.2c.2-0.2 .4-0.3 .7-0.5c1.2-0.8 2.6-1.7 3.9-3.2c1.4-1.5 2.6-3.5 3.5-6.6c0 0 .1-0.3 .1-0.3c.1 .6 .2 1.3 .2 1.9c-0.1 .7-0.1 1.3-0.3 1.9c-0.1 .7-0.3 1.3-0.6 1.8c-0.3 .6-0.6 1.2-1 1.7c-0.4 .3-0.7 .6-0.9 1c-0.3 .4-0.5 .8-0.6 1.3c-0.1 .4-0.2 .9-0.1 1.3c0 .5 .1 .9 .2 1.4c.2 .4 .4 .8 .7 1.2c.2 .4 .6 .7 .9 1c.2 .1 .3 .2 .5 .3c.2 .1 .4 .2 .5 .2h.1c-0.9-0.8-1.4-1.7-1.4-2.7c-0.1-1.8 .9-2.5 2-3.1c.3-0.1 .5-0.3 .7-0.4c.6-0.7 1.1-1.5 1.5-2.3c.5-1.3 .8-2.8 1.1-4.3v-0.1c.1-0.2 .1-0.5 .1-0.8l.1-0.1c.2-1.2 .4-2.6 1.1-3.4c.7 .8 .9 2.2 1.1 3.4c0 0 .1 .1 .1 .2c0 .2 0 .5 .1 .7c.3 1.6 .6 3 1.2 4.4c.5 1.3 1.4 2.5 2.8 3.5c.2 .2 .3 .3 .4 .5c.1 .2 .2 .4 .2 .7c.1 .2 .1 .5 0 .8c0 .4-0.1 .7-0.2 1c0 .3-0.1 .5-0.3 .8c-0.1 .2-0.2 .4-0.4 .6l-1 1.1l.7-0.3c1.1-0.5 1.8-1.4 2.2-2.5c.4-1.4 .1-2.9-0.8-4c-2.5-2.8-3.1-7.5-0.8-10c-0.1 .7-0.2 1.3-0.3 2c.9 2.8 2.1 4.8 3.4 6.2c1.3 1.5 2.7 2.4 4 3.2v.1c.5 .3 1 .6 1.4 .9c.5 .4 .9 .7 1.2 1.1c.4 .4 .7 .8 .8 1.3c.4 1 .4 2.4-0.4 3.2c-0.2 .1-0.4 .2-0.6 .3c-2 .9-3.1-1-3.7-2.5l-0.3 1c0 .4-0.1 .8 0 1.1c0 .3 .1 .6 .3 .9c.1 .3 .3 .5 .5 .7c.2 .2 .5 .4 .8 .5c2.2 1.1 6.4-1.2 6.4-3.9c.1 .3 .2 .7 .1 1c1-1.9-0.3-4.5-3.6-6.7c-4.9-3.4-6.6-5.2-6.2-8.7c.4 .7 .8 1.3 1.2 1.9c.4 .2 .7 .4 1 .5c.6 .3 1.2 .6 1.7 .9c1.3 .5 2.5 .9 3.7 1.1c3.5 .7 7.5-1 7.9-4.8v.1c-0.1 .3-0.2 .5-0.3 .7c.7-2.9-1.9-5.6-4-5.1c.6-0.2 1.3-0.3 2-0.3c0-0.1 .1-0.1 .2-0.2c0 0 0-0.1 0-0.1c1.9-2.9 4.8-8.7 2.9-11c.2 .2 .2 .9 .2 1.2c-0.1-1-1-2.9-3.5-3c-1.2 0-3 1.1-3.3 2.3c-0.4 1.6 .4 2.4 1.3 3.4c.1 .1 .2 .2 .3 .3c-0.4-1.5-1.1-4.1 1.3-4.3c5-0.3 1 10.7-5.5 12.3c-3.7 1.6-8 .9-11.1-1.6c-0.5-0.4-0.7-0.7-0.7-0.8c.8-0.7 1.2-1.2 1.4-1.7c-1 .7-2.1 1.2-3.3 1.4c-0.1 .5-0.5 .8-0.9 1c.1-0.3 .2-0.6 .3-0.9c0-0.5-0.2-1-0.5-1.5c.8-0.8 1.7-1.4 2.6-1.9c-0.5 0-1.2 .2-1.8 .6c2.2-1.9 3.6-4.5 4.1-7.3c-0.2 .5-0.6 1-1 1.3c.9-2.4 .9-5 0-7.4c0 .7 0 1.4-0.2 2.1c-0.3-2.8-2.3-5.2-5.1-5.8c-0.2 0-0.5 0-0.6 0c-0.9 0-1.8 .2-2.5 .5c-0.9 .3-1.6 .7-2.3 1.1c-0.8 .6-1.4 1.2-2 1.9c-0.6 .7-1 1.5-1.3 2.4c-0.4 .8-0.6 1.7-0.6 2.6c-0.1 .9-0.1 1.8 .1 2.7c.2 .9 .6 1.7 1 2.5c.4 .8 1 1.5 1.7 2.2c-0.4 .2-0.6 .5-0.8 .8c-0.2 .3-0.2 .7-0.2 1c0 .4 .2 .8 .4 1.2c.2 .4 .5 .8 .9 1.3c.1 .1 .3 .2 .5 .3c-0.3 .1-0.6 .1-0.9 0c-0.9 .8-1.7 1.4-2.9 1.7c-1.2 .4-2.5 .7-3.8 .8c-2.2 .3-4.3 0-6.2-1.3c-1.9-1.2-3.3-3-4.2-4.9c-0.3-0.4-0.4-0.8-0.6-1.2c0 .3 0 .5 .1 .8v.1c-1.5-4.6-0.2-6.8 2.2-7c1.7-0.2 2.9 1.2 2.5 3.9c.9-1.4 1-3-0.3-4.4c-3.1-3.4-8.2 .4-7.1 5.1c.7 2.8 3 5.8 5 7.8c-0.8 .2-1.6 .7-2.2 1.3Zm37.7 2.7c.1 0 .3 0 .4 0h.1h.1c.1 0 .2 0 .4 0c.3-0.1 .7-0.1 1-0.2c.3-0.1 .7-0.2 1-0.3c.5-0.2 1-0.4 1.5-0.6c.5-0.3 1-0.6 1.5-0.9c.1 0 .3-0.2 .4-0.3c.1 0 .2-0.1 .3-0.2c.1 0 .2-0.1 .3-0.2c.1-0.1 .2-0.2 .3-0.3c0 0 .1 0 .1-0.1c.1 0 .1-0.1 .2-0.1c.4 .1 .8 .3 1.2 .6c.3 .3 .5 .8 .7 1.3c0 .3 .1 .7 0 1c0 .3-0.1 .6-0.2 .9c-0.1 .3-0.3 .6-0.6 .9c-0.2 .2-0.5 .4-0.9 .6c-0.8 .3-1.8 .4-3.3 0c-1.2-0.3-2.7-0.9-4.5-2v-0.1Zm-0.4-3c-3.1 0-4.7-0.7-6.9-2.7c.3-0.5 .7-0.9 .9-1.3c.2-0.4 .3-0.8 .3-1.2c.1-0.3 0-0.7-0.2-1c-0.1-0.3-0.4-0.6-0.7-0.8c-0.1 0-0.1 0-0.2 0h.1h.1c.6-0.7 1.2-1.4 1.6-2.2c.5-0.8 .8-1.6 1-2.5c.2-0.9 .3-1.8 .2-2.7c-0.1-0.9-0.3-1.8-0.6-2.7c-0.4-0.8-0.8-1.6-1.4-2.3c-0.5-0.7-1.2-1.3-1.9-1.9c-0.7-0.5-1.5-0.8-2.3-1.1c-0.8-0.3-1.7-0.5-2.5-0.5c3.6 .5 6.6 3.2 7.5 6.7c.9 3.4-0.3 7-3.1 9.3l-0.2 .2c2.2 .8 2.4 2.1 .3 4c.1 .1 .2 .2 .3 .2c0 .1 .1 .1 .1 .2c2.1 1.8 4.8 2.7 7.6 2.3Zm-7.4-7c.2 0 .4 0 .6 0c-0.2 0-0.4 0-0.6 0Zm18.1 3.8c2.5-4.3 4.3-8.9-0.5-11.8c.4 .1 .8 .3 1.2 .5c.4 .2 .8 .5 1.1 .8c.3 .3 .6 .7 .8 1.1c.2 .3 .3 .5 .4 .8c.1 .3 .1 .5 .2 .8c0 .7 0 1.4-0.2 2.2c-0.2 .8-0.5 1.6-0.9 2.4c-0.5 .9-1 1.8-1.7 2.7c-0.1 .2-0.2 .3-0.4 .5Zm1.6 6.6c0-0.6-0.2-1.1-0.4-1.6c-0.2-0.6-0.6-1.1-1-1.5c-0.4-0.4-0.8-0.7-1.3-0.9c3.8 3.2 2.2 7.7-2 8.9c.8-0.2 1.5-0.4 2.1-0.7c.8-0.4 1.5-1 1.9-1.7l.1-0.1c0 0 .1-0.1 .2-0.2c0-0.2 .1-0.3 .1-0.4h.1c.1-0.6 .2-1.2 .2-1.8Zm-10.8 6.9c.4 .2 .8 .5 1.2 .7c.4 .3 .8 .6 1.1 .9c.9 .7 1.7 1.5 2.2 2.2c.7 .8 1 1.5 1.3 2.2c.2 .7 .2 1.3 .1 1.9c-0.1 .7-0.3 1.3-0.6 1.8c-0.1 .1-0.1 .2-0.2 .3c0 0-0.1 .1-0.1 .2h-0.1c-0.5 .7-1.3 1.3-2.2 1.6c-0.6 .2-1.3 .4-1.9 .4c5.6-1.9 5.7-6.8 .3-10.7c-3.3-2.4-5.5-4.5-6.2-6.8v.1c.6 1.1 1.4 2 2.2 2.9c.4 .4 .9 .8 1.4 1.2c.4 .4 .9 .7 1.5 1.1Zm-6.7 2.6c-0.1-0.5-0.3-0.9-0.5-1.3c-0.3-0.4-0.6-0.7-0.9-1c-0.4-0.5-0.8-1.1-1-1.7c-0.3-0.5-0.5-1.1-0.7-1.8c-0.1-0.6-0.2-1.2-0.2-1.9c0-0.6 0-1.3 .1-1.9c-0.9 2.8 0 6.1 1.9 8.3c1.7 2.3 1.4 4.4-0.9 6.5c0 0 0 0 0 0c0 0 0 0 0 0c.2-0.1 .3-0.2 .5-0.4c.4-0.2 .7-0.6 1-0.9c.2-0.4 .5-0.8 .6-1.2c.2-0.5 .3-0.9 .3-1.4c0-0.4-0.1-0.9-0.2-1.3Zm-31.3-20.4c1.8 4.4 5.1 6.6 9.2 7h-0.6c-7.2 0-12.3-10.3-8-12.3c2.1-1 3.6 1.7 2.4 4.1c1.5-6.2-5.6-4.9-3 1.2Zm0 10.3c.1 1.5 1.4 2.5 2.8 2.5c-0.3 0-0.6-0.1-0.9-0.2c-0.3-0.2-0.6-0.4-0.9-0.6c-0.2-0.3-0.4-0.6-0.5-0.9c-0.2-0.3-0.2-0.6-0.3-0.9c0-0.3 0-0.7 .1-1c.1-0.5 .4-1 .7-1.3c.1-0.1 .2-0.2 .4-0.3c-1 .5-1.6 1.6-1.4 2.7Zm8.6 17.6c-2.5-0.6-2.3-3.9 .3-5.4c-0.2 .1-0.4 .3-0.6 .5c-0.4 .4-0.6 .8-0.8 1.3c-0.2 .5-0.3 .9-0.3 1.4c0 .2 .1 .4 .1 .7c.1 .2 .2 .4 .3 .6c.1 .2 .2 .3 .4 .5c.1 .1 .3 .2 .5 .3c0 0 0 0 .1 0c0 0 0 .1 0 .1Zm9.4-7.1c-1.6 1.2-1.4 3.7 1.4 5.5l-1.1-1.1c-0.1-0.2-0.3-0.4-0.4-0.6c-0.1-0.2-0.2-0.5-0.3-0.7c-0.1-0.4-0.2-0.7-0.2-1.1c-0.1-0.3-0.1-0.6 0-0.8c0-0.3 .1-0.5 .2-0.7c.1-0.2 .2-0.3 .4-0.5Z" fill="#010b29"/><ellipse fill="#010b29" rx="2" ry="2" opacity="0" transform="translate(14,61)" style="animation: 2s linear infinite both a0_t, 2s linear infinite both a0_o;"/><ellipse fill="#010b29" rx="2" ry="2" opacity="0" transform="translate(9,61)" style="animation: 2s linear infinite both a1_t, 2s linear infinite both a1_o;"/><ellipse fill="#010b29" rx="2" ry="2" opacity="0" transform="translate(23,61)" style="animation: 2s linear infinite both a2_t, 2s linear infinite both a2_o;"/><ellipse fill="#010b29" rx="2" ry="2" opacity="0" transform="translate(43,61)" style="animation: 2s linear infinite both a3_t, 2s linear infinite both a3_o;"/><ellipse fill="#010b29" rx="2" ry="2" opacity="0" transform="translate(55,61)" style="animation: 2s linear infinite both a4_t, 2s linear infinite both a4_o;"/><ellipse fill="#010b29" rx="2" ry="2" opacity="0" transform="translate(25,61)" style="animation: 2s linear infinite both a5_t, 2s linear infinite both a5_o;"/><ellipse fill="#010b29" rx="2" ry="2" opacity="0" transform="translate(30,61)" style="animation: 2s linear infinite both a6_t, 2s linear infinite both a6_o;"/><ellipse fill="#010b29" rx="2" ry="2" opacity="0" transform="translate(20,61)" style="animation: 2s linear infinite both a7_t, 2s linear infinite both a7_o;"/><ellipse fill="#010b29" rx="2" ry="2" opacity="0" transform="translate(39,61)" style="animation: 2s linear infinite both a8_t, 2s linear infinite both a8_o;"/><ellipse fill="#010b29" rx="2" ry="2" opacity="0" transform="translate(18,61)" style="animation: 2s linear infinite both a9_t, 2s linear infinite both a9_o;"/><ellipse fill="#010b29" rx="1" ry="1" opacity="0" transform="translate(21,61)" style="animation: 2s linear infinite both a10_t, 2s linear infinite both a10_o;"/><ellipse fill="#010b29" rx="1" ry="1" opacity="0" transform="translate(32,61)" style="animation: 2s linear infinite both a11_t, 2s linear infinite both a11_o;"/><ellipse fill="#010b29" rx="1" ry="1" opacity="0" transform="translate(50,61)" style="animation: 2s linear infinite both a12_t, 2s linear infinite both a12_o;"/><ellipse fill="#010b29" rx="1.5" ry="1.5" opacity="0" transform="translate(27.5,61.5)" style="animation: 2s linear infinite both a13_t, 2s linear infinite both a13_o;"/><ellipse fill="#010b29" rx="1.5" ry="1.5" opacity="0" transform="translate(51.5,61.5)" style="animation: 2s linear infinite both a14_t, 2s linear infinite both a14_o;"/><ellipse fill="#010b29" rx="1.5" ry="1.5" opacity="0" transform="translate(48.5,61.5)" style="animation: 2s linear infinite both a15_t, 2s linear infinite both a15_o;"/><ellipse fill="#010b29" rx="1.5" ry="1.5" opacity="0" transform="translate(36.5,61.5)" style="animation: 2s linear infinite both a16_t, 2s linear infinite both a16_o;"/><ellipse fill="#010b29" rx="1.5" ry="1.5" opacity="0" transform="translate(16.5,61.5)" style="animation: 2s linear infinite both a17_t, 2s linear infinite both a17_o;"/><ellipse fill="#010b29" rx="1.5" ry="1.5" opacity="0" transform="translate(10.5,61.5)" style="animation: 2s linear infinite both a18_t, 2s linear infinite both a18_o;"/><ellipse fill="#010b29" rx="1.5" ry="1.5" opacity="0" transform="translate(46.5,61.5)" style="animation: 2s linear infinite both a19_t, 2s linear infinite both a19_o;"/><ellipse fill="#010b29" rx="1.5" ry="1.5" opacity="0" transform="translate(40.5,61.5)" style="animation: 2s linear infinite both a20_t, 2s linear infinite both a20_o;"/><ellipse fill="#010b29" rx="1.5" ry="1.5" opacity="0" transform="translate(33.5,61.5)" style="animation: 2s linear infinite both a21_t, 2s linear infinite both a21_o;"/><ellipse fill="#010b29" rx="1.5" ry="1.5" opacity="0" transform="translate(54.5,61.5)" style="animation: 2s linear infinite both a22_t, 2s linear infinite both a22_o;"/></svg>