<svg width="40" height="40" viewBox="0 0 40 40" fill="none" xmlns="http://www.w3.org/2000/svg">
<path d="M33.9687 10.7539L22.3 5.43359C21.0352 4.85547 18.9648 4.85547 17.7 5.43359L6.03906 10.7539C4.66406 11.3789 4.66406 12.4016 6.03906 13.0266L17.6016 18.3C18.9211 18.9016 21.093 18.9016 22.4125 18.3L33.975 13.0266C35.3437 12.4016 35.3437 11.3781 33.9687 10.7539Z" stroke="#FF3300" stroke-width="2" stroke-linecap="round" stroke-linejoin="round"/>
<path d="M12.5 24.1031L6.03906 27.0024C4.66406 27.6274 4.66406 28.6508 6.03906 29.2758L17.6016 34.5492C18.9211 35.15 21.093 35.15 22.4125 34.5492L33.975 29.2758C35.35 28.6508 35.35 27.6274 33.975 27.0024L27.7297 23.9969" stroke="#FF3300" stroke-width="2" stroke-linecap="round" stroke-linejoin="round"/>
<path d="M12.5 15.975L6.03125 18.8781C4.65625 19.5031 4.65625 20.5265 6.03125 21.1515L17.5937 26.4242C18.9133 27.0258 21.0852 27.0258 22.4047 26.4242L33.9672 21.1515C35.35 20.5265 35.35 19.5031 33.975 18.8781L27.5 15.975" stroke="#FF3300" stroke-width="2" stroke-linecap="round" stroke-linejoin="round"/>
</svg>
