<svg width="64" height="64" viewBox="0 0 64 64" fill="none" xmlns="http://www.w3.org/2000/svg">
<path d="M28 29C28 27.9391 28.4214 26.9217 29.1716 26.1716C29.9217 25.4214 30.9391 25 32 25C33.0609 25 34.0783 25.4214 34.8284 26.1716C35.5786 26.9217 36 27.9391 36 29" stroke="#FF3300" stroke-width="4" stroke-linecap="round" stroke-linejoin="round"/>
<path d="M56 25H58" stroke="#FF3300" stroke-width="4" stroke-linecap="round" stroke-linejoin="round"/>
<path d="M8 25H6" stroke="#FF3300" stroke-width="4" stroke-linecap="round" stroke-linejoin="round"/>
<path d="M8 25C8 37 10 41 18 41C26 41 28 37 28 25C28 25 26 23 18 23C10 23 8 25 8 25Z" stroke="#FF3300" stroke-width="4" stroke-linecap="round" stroke-linejoin="round"/>
<path d="M56 25C56 37 54 41 46 41C38 41 36 37 36 25C36 25 38 23 46 23C54 23 56 25 56 25Z" stroke="#FF3300" stroke-width="4" stroke-linecap="round" stroke-linejoin="round"/>
</svg>
