<svg width="640" height="203" viewBox="0 0 640 203" fill="none" xmlns="http://www.w3.org/2000/svg">
<g clip-path="url(#clip0_7_1441)">
<path d="M129 3V0L126 0V3H129Z" fill="#495057"/>
<path d="M147 3V0L144 0V3H147Z" fill="#495057"/>
<path d="M165 3V0L162 0V3H165Z" fill="#495057"/>
<path d="M93 23V20H90V23H93Z" fill="#495057"/>
<path d="M111 23V20H108V23H111Z" fill="#495057"/>
<path d="M129 23V20H126V23H129Z" fill="#495057"/>
<path d="M147 23V20H144V23H147Z" fill="#495057"/>
<path d="M165 23V20H162V23H165Z" fill="#495057"/>
<path d="M129 43V40H126V43H129Z" fill="#495057"/>
<path d="M147 43V40H144V43H147Z" fill="#495057"/>
<path d="M165 43V40H162V43H165Z" fill="#495057"/>
<path d="M75 63V60H72V63H75Z" fill="#495057"/>
<path d="M93 63V60H90V63H93Z" fill="#495057"/>
<path d="M111 63V60H108V63H111Z" fill="#495057"/>
<path d="M129 63V60H126V63H129Z" fill="#495057"/>
<path d="M147 63V60H144V63H147Z" fill="#495057"/>
<path d="M165 63V60H162V63H165Z" fill="#495057"/>
<path d="M129 83V80H126V83H129Z" fill="#495057"/>
<path d="M147 83V80H144V83H147Z" fill="#495057"/>
<path d="M165 83V80H162V83H165Z" fill="#495057"/>
<path d="M75 103V100H72V103H75Z" fill="#495057"/>
<path d="M93 103V100H90V103H93Z" fill="#495057"/>
<path d="M111 103V100H108V103H111Z" fill="#495057"/>
<path d="M129 103V100H126V103H129Z" fill="#495057"/>
<path d="M147 103V100H144V103H147Z" fill="#495057"/>
<path d="M21 123V120H18V123H21Z" fill="#495057"/>
<path d="M39 123V120H36V123H39Z" fill="#495057"/>
<path d="M57 123V120H54V123H57Z" fill="#495057"/>
<path d="M75 123V120H72V123H75Z" fill="#495057"/>
<path d="M93 123V120H90V123H93Z" fill="#495057"/>
<path d="M111 123V120H108V123H111Z" fill="#495057"/>
<path d="M129 123V120H126V123H129Z" fill="#495057"/>
<path d="M39 143V140H36V143H39Z" fill="#495057"/>
<path d="M57 143V140H54V143H57Z" fill="#495057"/>
<path d="M75 143V140H72V143H75Z" fill="#495057"/>
<path d="M93 143V140H90V143H93Z" fill="#495057"/>
<path d="M111 143V140H108V143H111Z" fill="#495057"/>
<path d="M129 143V140H126V143H129Z" fill="#495057"/>
<path d="M147 143V140H144V143H147Z" fill="#495057"/>
<path d="M3 163V160H0V163H3Z" fill="#495057"/>
<path d="M21 163V160H18V163H21Z" fill="#495057"/>
<path d="M39 163V160H36V163H39Z" fill="#495057"/>
<path d="M57 163V160H54V163H57Z" fill="#495057"/>
<path d="M111 163V160H108V163H111Z" fill="#495057"/>
<path d="M39 183V180H36V183H39Z" fill="#495057"/>
<path d="M57 183V180H54V183H57Z" fill="#495057"/>
<path d="M75 183V180H72V183H75Z" fill="#495057"/>
<path d="M93 183V180H90V183H93Z" fill="#495057"/>
<path d="M111 183V180H108V183H111Z" fill="#495057"/>
<path d="M129 183V180H126V183H129Z" fill="#495057"/>
<path d="M147 183V180H144V183H147Z" fill="#495057"/>
<path d="M3 203V200H0V203H3Z" fill="#495057"/>
<path d="M21 203V200H18V203H21Z" fill="#495057"/>
<path d="M39 203V200H36V203H39Z" fill="#495057"/>
<path d="M57 203V200H54V203H57Z" fill="#495057"/>
<path d="M75 203V200H72V203H75Z" fill="#495057"/>
<path d="M93 203V200H90V203H93Z" fill="#495057"/>
<path d="M111 203V200H108V203H111Z" fill="#495057"/>
</g>
<g clip-path="url(#clip1_7_1441)">
<path d="M420 181H417V184H420V181Z" fill="#495057"/>
<path d="M420 163H417V166H420V163Z" fill="#495057"/>
<path d="M420 127H417V130H420V127Z" fill="#495057"/>
<path d="M420 109H417V112H420V109Z" fill="#495057"/>
<path d="M420 91H417V94H420V91Z" fill="#495057"/>
<path d="M440 181H437V184H440V181Z" fill="#495057"/>
<path d="M440 163H437V166H440V163Z" fill="#495057"/>
<path d="M440 145H437V148H440V145Z" fill="#495057"/>
<path d="M440 127H437V130H440V127Z" fill="#495057"/>
<path d="M440 109H437V112H440V109Z" fill="#495057"/>
<path d="M440 91H437V94H440V91Z" fill="#495057"/>
<path d="M460 163H457V166H460V163Z" fill="#495057"/>
<path d="M460 127H457V130H460V127Z" fill="#495057"/>
<path d="M460 109H457V112H460V109Z" fill="#495057"/>
<path d="M460 91H457V94H460V91Z" fill="#495057"/>
<path d="M480 163H477V166H480V163Z" fill="#495057"/>
<path d="M480 145H477V148H480V145Z" fill="#495057"/>
<path d="M480 127H477V130H480V127Z" fill="#495057"/>
<path d="M480 109H477V112H480V109Z" fill="#495057"/>
<path d="M480 91H477V94H480V91Z" fill="#495057"/>
<path d="M480 73H477V76H480V73Z" fill="#495057"/>
<path d="M500 145H497V148H500V145Z" fill="#495057"/>
<path d="M500 109H497V112H500V109Z" fill="#495057"/>
<path d="M500 91H497V94H500V91Z" fill="#495057"/>
<path d="M500 73H497V76H500V73Z" fill="#495057"/>
<path d="M520 163H517V166H520V163Z" fill="#495057"/>
<path d="M520 145H517V148H520V145Z" fill="#495057"/>
<path d="M520 127H517V130H520V127Z" fill="#495057"/>
<path d="M520 109H517V112H520V109Z" fill="#495057"/>
<path d="M520 91H517V94H520V91Z" fill="#495057"/>
<path d="M520 73H517V76H520V73Z" fill="#495057"/>
<path d="M540 163H537V166H540V163Z" fill="#495057"/>
<path d="M540 145H537V148H540V145Z" fill="#495057"/>
<path d="M540 109H537V112H540V109Z" fill="#495057"/>
<path d="M540 91H537V94H540V91Z" fill="#495057"/>
<path d="M540 73H537V76H540V73Z" fill="#495057"/>
<path d="M560 163H557V166H560V163Z" fill="#495057"/>
<path d="M560 145H557V148H560V145Z" fill="#495057"/>
<path d="M560 127H557V130H560V127Z" fill="#495057"/>
<path d="M560 109H557V112H560V109Z" fill="#495057"/>
<path d="M560 91H557V94H560V91Z" fill="#495057"/>
<path d="M560 73H557V76H560V73Z" fill="#495057"/>
<path d="M580 163H577V166H580V163Z" fill="#495057"/>
<path d="M580 145H577V148H580V145Z" fill="#495057"/>
<path d="M580 127H577V130H580V127Z" fill="#495057"/>
<path d="M580 109H577V112H580V109Z" fill="#495057"/>
<path d="M580 91H577V94H580V91Z" fill="#495057"/>
<path d="M580 73H577V76H580V73Z" fill="#495057"/>
<path d="M580 37H577V40H580V37Z" fill="#495057"/>
<path d="M600 163H597V166H600V163Z" fill="#495057"/>
<path d="M600 127H597V130H600V127Z" fill="#495057"/>
<path d="M600 91H597V94H600V91Z" fill="#495057"/>
<path d="M600 73H597V76H600V73Z" fill="#495057"/>
<path d="M600 55H597V58H600V55Z" fill="#495057"/>
<path d="M600 37H597V40H600V37Z" fill="#495057"/>
<path d="M600 19H597V22H600V19Z" fill="#495057"/>
<path d="M620 163H617V166H620V163Z" fill="#495057"/>
<path d="M620 127H617V130H620V127Z" fill="#495057"/>
<path d="M620 73H617V76H620V73Z" fill="#495057"/>
<path d="M620 55H617V58H620V55Z" fill="#495057"/>
<path d="M620 37H617V40H620V37Z" fill="#495057"/>
<path d="M620 19H617V22H620V19Z" fill="#495057"/>
<path d="M640 55H637V58H640V55Z" fill="#495057"/>
<path d="M640 19H637V22H640V19Z" fill="#495057"/>
</g>
<g clip-path="url(#clip2_7_1441)">
<path fill-rule="evenodd" clip-rule="evenodd" d="M249.686 126.933H286.442C294.27 126.933 300.64 120.912 300.64 113.512V110.993C300.64 103.728 294.625 97.8353 286.947 97.5821L286.691 97.561H261.855C259.7 97.561 257.948 95.9037 257.948 93.8708V91.4444C257.948 89.407 259.7 87.7478 261.855 87.7478H297.865V78.0217H261.855C254.027 78.0217 247.659 84.0403 247.659 91.4444V93.8708C247.659 101.272 254.027 107.295 261.855 107.295H286.442C288.597 107.301 290.347 108.959 290.347 110.993V113.512C290.347 115.542 288.594 117.201 286.442 117.201H249.686V126.933Z" fill="white"/>
<path fill-rule="evenodd" clip-rule="evenodd" d="M312.827 126.927H323.117V78.0247H312.829L312.827 126.927Z" fill="white"/>
<path fill-rule="evenodd" clip-rule="evenodd" d="M456.775 126.91H467.068L467.07 91.4593C467.07 84.0552 460.702 78.0334 452.872 78.0334H401.593V126.91H411.821V87.7665H428.955L428.968 126.91H439.239V87.7665H452.872C455.029 87.7665 456.781 89.4258 456.781 91.4612L456.775 126.91Z" fill="white"/>
<path fill-rule="evenodd" clip-rule="evenodd" d="M517.406 117.179H517.4H491.488C489.333 117.179 487.577 115.523 487.577 113.482V110.993C487.577 108.956 489.333 107.297 491.488 107.297H517.42L517.406 117.179ZM527.72 91.4448C527.72 84.0452 521.348 78.0215 513.518 78.0215H480.836V87.7539H513.518C515.678 87.7539 517.429 89.4138 517.429 91.448L517.427 97.5646H491.488C483.661 97.5646 477.294 103.59 477.294 110.993V113.482C477.294 120.889 483.661 126.91 491.488 126.91H527.679L527.72 91.4448Z" fill="white"/>
<path fill-rule="evenodd" clip-rule="evenodd" d="M336.992 113.518C336.992 120.919 343.356 126.944 351.187 126.944H387.422V97.5996H360.346V107.331H377.074V117.212H351.187C349.031 117.212 347.274 115.553 347.274 113.518L347.265 91.4625C347.265 89.427 349.022 87.7678 351.178 87.7678H387.322V78.0347H351.178C343.347 78.0347 336.981 84.0564 336.981 91.4625L336.992 113.518Z" fill="white"/>
<path fill-rule="evenodd" clip-rule="evenodd" d="M168.882 45C160.795 45 153.947 61.7453 151.619 84.8573C128.644 87.1991 112 94.0887 112 102.226C112 110.361 128.644 117.251 151.619 119.593C153.947 142.704 160.795 159.449 168.882 159.449C178.886 159.449 186.997 133.828 186.997 102.225C186.997 70.6204 178.886 45 168.882 45Z" fill="url(#paint0_linear_7_1441)"/>
<mask id="mask0_7_1441" style="mask-type:alpha" maskUnits="userSpaceOnUse" x="151" y="84" width="75" height="37">
<path d="M151.621 119.592C157.065 120.146 162.865 120.446 168.883 120.446C200.299 120.446 225.765 112.287 225.765 102.225C225.765 94.088 209.122 87.1985 186.147 84.8567L151.621 119.592Z" fill="white"/>
</mask>
<g mask="url(#mask0_7_1441)">
<path d="M151.621 119.592C157.065 120.146 162.865 120.446 168.883 120.446C200.299 120.446 225.765 112.287 225.765 102.225C225.765 94.088 209.122 87.1985 186.147 84.8567L151.621 119.592Z" fill="url(#paint1_linear_7_1441)"/>
<path fill-rule="evenodd" clip-rule="evenodd" d="M186.147 84.8567H186.146L151.621 119.593C157.065 120.146 162.865 120.446 168.884 120.446C174.903 120.446 180.703 120.146 186.147 119.593C186.698 114.114 186.997 108.279 186.997 102.224C186.997 96.1683 186.698 90.333 186.147 84.8567Z" fill="#690000"/>
<path fill-rule="evenodd" clip-rule="evenodd" d="M151.625 119.592L186.15 84.8564C180.707 84.302 174.906 84.0015 168.888 84.0015C162.869 84.0015 157.068 84.302 151.624 84.8564C151.072 90.3334 150.774 96.1686 150.774 102.224C150.774 108.279 151.072 114.113 151.624 119.592H151.625Z" fill="#A50D12"/>
</g>
<path fill-rule="evenodd" clip-rule="evenodd" d="M250.938 160.023V158.026H251.131C252.051 158.294 254.253 158.781 255.657 158.781H256.407C258.683 158.781 260.208 157.928 260.208 155.64C260.208 153.643 259.191 153.035 257.545 152.596L255.101 151.939C253.358 151.452 251.131 150.308 251.131 147.069C251.131 144.122 253.382 142.125 256.989 142.125H257.545C258.877 142.125 260.958 142.516 261.708 142.88V144.804H261.515C260.643 144.512 258.78 144.122 257.545 144.122H256.989C254.713 144.122 253.382 144.975 253.382 147.069C253.382 148.968 254.592 149.48 256.045 149.917L258.392 150.599C260.256 151.135 262.459 152.109 262.459 155.64C262.459 158.781 260.208 160.778 256.407 160.778H255.657C254.157 160.778 251.688 160.291 250.938 160.023Z" fill="#CED4DA"/>
<path fill-rule="evenodd" clip-rule="evenodd" d="M275.287 153.74C275.287 150.794 274.439 148.968 271.608 148.968C268.775 148.968 267.929 150.794 267.929 153.74C267.929 156.687 268.775 158.879 271.608 158.879C274.439 158.879 275.287 156.687 275.287 153.74ZM265.847 153.74C265.847 149.748 267.735 147.069 271.608 147.069C275.674 147.069 277.368 149.748 277.368 153.74C277.368 158.1 275.48 160.777 271.608 160.777C267.541 160.777 265.847 158.1 265.847 153.74Z" fill="#CED4DA"/>
<path fill-rule="evenodd" clip-rule="evenodd" d="M282.264 149.163H280.182V147.263H282.264V146.703C282.264 143.83 283.982 142.32 286.62 142.32H288.121V144.22H286.62C284.926 144.22 284.345 144.975 284.345 146.703V147.263H287.758V149.163H284.345V160.583H282.264V149.163Z" fill="#CED4DA"/>
<path fill-rule="evenodd" clip-rule="evenodd" d="M296.489 160.583C293.657 160.583 291.938 159.244 291.938 156.005V149.163H289.856V147.264H291.938V144.22H294.02V147.264H297.796V149.163H294.02V155.64C294.02 158.1 294.77 158.683 296.852 158.683H298.183V160.583H296.489Z" fill="#CED4DA"/>
<path fill-rule="evenodd" clip-rule="evenodd" d="M300.987 150.697V147.264H303.069V150.697C303.069 154.495 304.279 157.636 305.417 159.049C306.555 157.636 307.789 154.495 307.789 150.697V147.264H309.87V150.697C309.87 154.495 311.104 157.636 312.242 159.049C313.356 157.636 314.59 154.495 314.59 150.697V147.264H316.672V150.697C316.672 155.25 314.784 159.244 313.453 160.583H311.202C310.524 159.828 309.12 157.442 308.83 156.005C308.539 157.442 307.135 159.828 306.457 160.583H304.206C302.875 159.244 300.987 155.25 300.987 150.697Z" fill="#CED4DA"/>
<path fill-rule="evenodd" clip-rule="evenodd" d="M328.659 156.005V149.163H327.159C324.302 149.163 322.244 151.062 322.244 154.106V156.2C322.244 158.294 323.188 158.879 324.302 158.879C325.633 158.879 327.159 157.54 327.908 156.785L328.659 156.005ZM320.163 156.2V154.106C320.163 149.918 323.552 147.263 327.159 147.263H330.741V160.583H328.659V158.1L327.715 159.049C326.746 159.998 325.633 160.778 323.939 160.778C321.857 160.778 320.163 159.438 320.163 156.2Z" fill="#CED4DA"/>
<path fill-rule="evenodd" clip-rule="evenodd" d="M336.019 147.263H338.1V150.21L338.294 149.918C339.287 148.384 340.448 147.263 342.167 147.263H343.013V149.552H342.07C341.126 149.552 340.206 149.918 339.601 150.502L338.1 152.012V160.583H336.019V147.263Z" fill="#CED4DA"/>
<path fill-rule="evenodd" clip-rule="evenodd" d="M347.612 152.961H351C353.082 152.961 353.663 152.206 353.663 150.892C353.663 149.455 352.695 148.968 351.194 148.968C348.919 148.968 347.612 150.112 347.612 152.791V152.961ZM345.53 155.445V152.791C345.53 149.163 347.974 147.069 351.194 147.069C353.833 147.069 355.72 148.213 355.72 150.892C355.72 153.253 354.219 154.69 351.581 154.69H347.612V155.445C347.612 157.929 349.112 158.878 351.194 158.878C352.695 158.878 354.219 158.294 354.776 158.026H354.97V159.926C354.413 160.194 352.695 160.777 351.194 160.777C347.974 160.777 345.53 159.244 345.53 155.445Z" fill="#CED4DA"/>
</g>
<defs>
<linearGradient id="paint0_linear_7_1441" x1="160.575" y1="137.575" x2="139.626" y2="96.2687" gradientUnits="userSpaceOnUse">
<stop stop-color="#E11F27"/>
<stop offset="1" stop-color="#EE2A24"/>
</linearGradient>
<linearGradient id="paint1_linear_7_1441" x1="180.535" y1="100.994" x2="187.784" y2="112.929" gradientUnits="userSpaceOnUse">
<stop stop-color="#595959"/>
<stop offset="1" stop-color="#0A0A0A"/>
</linearGradient>
<clipPath id="clip0_7_1441">
<rect width="165" height="203" fill="white"/>
</clipPath>
<clipPath id="clip1_7_1441">
<rect width="223" height="165" fill="white" transform="translate(417 19)"/>
</clipPath>
<clipPath id="clip2_7_1441">
<rect width="416" height="116" fill="white" transform="translate(112 45)"/>
</clipPath>
</defs>
</svg>
