<svg width="40" height="40" viewBox="0 0 40 40" fill="none" xmlns="http://www.w3.org/2000/svg">
<path d="M33.6719 25.0469C33.5937 24.7656 33.7656 24.375 33.9297 24.0937C33.9798 24.01 34.0346 23.9292 34.0937 23.8516C35.4971 21.7663 36.2477 19.3104 36.25 16.7969C36.2734 9.59375 30.1953 3.75 22.6797 3.75C16.125 3.75 10.6562 8.21094 9.375 14.1328C9.18332 15.0105 9.08642 15.9063 9.08594 16.8047C9.08594 24.0156 14.9297 30.0156 22.4453 30.0156C23.6406 30.0156 25.25 29.6562 26.1328 29.4141C27.0156 29.1719 27.8906 28.8516 28.1172 28.7656C28.3494 28.6781 28.5955 28.6331 28.8437 28.6328C29.1146 28.6318 29.3828 28.6849 29.6328 28.7891L34.0625 30.3594C34.1596 30.4005 34.2623 30.4268 34.3672 30.4375C34.5329 30.4375 34.6919 30.3717 34.8091 30.2544C34.9263 30.1372 34.9922 29.9783 34.9922 29.8125C34.9867 29.741 34.9736 29.6703 34.9531 29.6016L33.6719 25.0469Z" stroke="#FF3300" stroke-width="2" stroke-miterlimit="10" stroke-linecap="round"/>
<path d="M5.19223 18.125C4.16757 19.9658 3.67189 22.0541 3.76 24.1591C3.8481 26.264 4.51655 28.3036 5.69145 30.0523C5.87192 30.325 5.97348 30.5359 5.94223 30.6773C5.91098 30.8188 5.0102 35.5109 5.0102 35.5109C4.98854 35.6207 4.99676 35.7344 5.034 35.8399C5.07124 35.9454 5.13614 36.039 5.22192 36.1109C5.33638 36.2021 5.4787 36.2512 5.62505 36.25C5.70325 36.2502 5.78065 36.2343 5.85239 36.2031L10.2438 34.4844C10.546 34.3652 10.8832 34.3708 11.1813 34.5C12.661 35.0766 14.2969 35.4375 15.9336 35.4375C18.1299 35.4398 20.2877 34.8606 22.1875 33.7586" stroke="#FF3300" stroke-width="2" stroke-miterlimit="10" stroke-linecap="round"/>
</svg>
