<svg width="40" height="40" viewBox="0 0 40 40" fill="none" xmlns="http://www.w3.org/2000/svg">
<path d="M23.75 12.5L18.75 7.5L23.75 2.5" stroke="#FF3300" stroke-width="2" stroke-linecap="round" stroke-linejoin="round"/>
<path d="M16.1719 27.5L21.1719 32.5L16.1719 37.5" stroke="#FF3300" stroke-width="2" stroke-linecap="round" stroke-linejoin="round"/>
<path d="M8.75 11.25C10.8211 11.25 12.5 9.57107 12.5 7.5C12.5 5.42893 10.8211 3.75 8.75 3.75C6.67893 3.75 5 5.42893 5 7.5C5 9.57107 6.67893 11.25 8.75 11.25Z" stroke="#FF3300" stroke-width="2" stroke-linecap="round" stroke-linejoin="round"/>
<path d="M31.25 36.25C33.3211 36.25 35 34.5711 35 32.5C35 30.4289 33.3211 28.75 31.25 28.75C29.1789 28.75 27.5 30.4289 27.5 32.5C27.5 34.5711 29.1789 36.25 31.25 36.25Z" stroke="#FF3300" stroke-width="2" stroke-linecap="round" stroke-linejoin="round"/>
<path d="M20 7.5H26.5625C27.8057 7.5 28.998 7.99386 29.8771 8.87294C30.7561 9.75201 31.25 10.9443 31.25 12.1875V28.75" stroke="#FF3300" stroke-width="2" stroke-linecap="round" stroke-linejoin="round"/>
<path d="M19.9219 32.5H13.3594C12.1162 32.5 10.9239 32.0061 10.0448 31.1271C9.16574 30.248 8.67188 29.0557 8.67188 27.8125V11.25" stroke="#FF3300" stroke-width="2" stroke-linecap="round" stroke-linejoin="round"/>
</svg>
