<svg width="40" height="40" viewBox="0 0 40 40" fill="none" xmlns="http://www.w3.org/2000/svg">
<path d="M28.9062 29.5312C31.1633 31.3688 32.5 33.1305 32.5 36.25" stroke="#FF3300" stroke-width="2" stroke-linecap="round" stroke-linejoin="round"/>
<path d="M11.0938 29.5312C8.83672 31.3688 7.5 33.1297 7.5 36.25" stroke="#FF3300" stroke-width="2" stroke-linecap="round" stroke-linejoin="round"/>
<path d="M30 16.25C32.257 14.4125 32.5 11.8695 32.5 8.75" stroke="#FF3300" stroke-width="2" stroke-linecap="round" stroke-linejoin="round"/>
<path d="M10 16.0938C7.74297 14.2562 7.5 11.8703 7.5 8.75" stroke="#FF3300" stroke-width="2" stroke-linecap="round" stroke-linejoin="round"/>
<path d="M36.25 22.5102H30" stroke="#FF3300" stroke-width="2" stroke-linecap="round" stroke-linejoin="round"/>
<path d="M10 22.5102H3.75" stroke="#FF3300" stroke-width="2" stroke-linecap="round" stroke-linejoin="round"/>
<path d="M20 15V35" stroke="#FF3300" stroke-width="2" stroke-linecap="round" stroke-linejoin="round"/>
<path d="M20 35C14.5 35 10 30.5 10 25V17.4945C10 12.4109 14.5 9.99454 20 9.99454C25.5 9.99454 30 11.9945 30 17.4945V25C30 30.5 25.5 35 20 35Z" stroke="#FF3300" stroke-width="2" stroke-linecap="round" stroke-linejoin="round"/>
<path d="M14.018 11.2125C13.8616 10.8204 13.7711 10.4052 13.75 9.98359C13.7543 8.33167 14.4125 6.74865 15.5806 5.58056C16.7486 4.41247 18.3317 3.75433 19.9836 3.75H20.0164C21.6683 3.75433 23.2514 4.41247 24.4194 5.58056C25.5875 6.74865 26.2457 8.33167 26.25 9.98359C26.2349 10.3674 26.1524 10.7456 26.0063 11.1008" stroke="#FF3300" stroke-width="2" stroke-linecap="round" stroke-linejoin="round"/>
</svg>
